<svg width="74" height="50" viewBox="0 0 74 50" fill="none" xmlns="http://www.w3.org/2000/svg">
<mask id="path-1-outside-1_2004_87" maskUnits="userSpaceOnUse" x="0" y="0" width="74" height="50" fill="black">
<rect fill="white" width="74" height="50"/>
<path d="M1.942 4.63C1.942 2.50333 2.96667 1.44 5.016 1.44L22.474 1.498C24.4847 1.498 25.5093 2.58066 25.548 4.746L25.606 8.11H22.532V4.688H5.016V11.532L22.3 11.59C24.4653 11.59 25.548 12.6727 25.548 14.838V45.81C25.548 47.8593 24.6007 48.884 22.706 48.884H5.016C2.85067 48.884 1.768 47.8593 1.768 45.81C1.768 40.7833 1.78733 36.5687 1.826 33.166C1.90333 25.8967 1.96133 22.1073 2 21.798H5.016V45.752H22.532V14.78C20.4827 14.7413 17.776 14.7027 14.412 14.664H5.016C2.96667 14.664 1.942 13.6393 1.942 11.59V4.63ZM42.3535 48.826H39.4535V21.624H32.2035V48.826H29.1875L29.0135 18.376L39.3955 18.434C41.4448 18.434 42.4695 19.5167 42.4695 21.682L42.3535 48.826ZM49.3846 3.528H52.4006L51.6466 11.532H48.5726L49.3846 3.528ZM55.4121 1.44H72.1741V4.688H65.2721V48.826H62.2561V4.688H55.4121V1.44Z"/>
</mask>
<path d="M1.942 4.63C1.942 2.50333 2.96667 1.44 5.016 1.44L22.474 1.498C24.4847 1.498 25.5093 2.58066 25.548 4.746L25.606 8.11H22.532V4.688H5.016V11.532L22.3 11.59C24.4653 11.59 25.548 12.6727 25.548 14.838V45.81C25.548 47.8593 24.6007 48.884 22.706 48.884H5.016C2.85067 48.884 1.768 47.8593 1.768 45.81C1.768 40.7833 1.78733 36.5687 1.826 33.166C1.90333 25.8967 1.96133 22.1073 2 21.798H5.016V45.752H22.532V14.78C20.4827 14.7413 17.776 14.7027 14.412 14.664H5.016C2.96667 14.664 1.942 13.6393 1.942 11.59V4.63ZM42.3535 48.826H39.4535V21.624H32.2035V48.826H29.1875L29.0135 18.376L39.3955 18.434C41.4448 18.434 42.4695 19.5167 42.4695 21.682L42.3535 48.826ZM49.3846 3.528H52.4006L51.6466 11.532H48.5726L49.3846 3.528ZM55.4121 1.44H72.1741V4.688H65.2721V48.826H62.2561V4.688H55.4121V1.44Z" fill="#4D4D4D"/>
<path d="M5.016 1.44L5.01932 0.439997H5.016V1.44ZM22.474 1.498L22.4707 2.498H22.474V1.498ZM25.548 4.746L26.5479 4.72876L26.5478 4.72815L25.548 4.746ZM25.606 8.11V9.11H26.6234L26.6059 8.09276L25.606 8.11ZM22.532 8.11H21.532V9.11H22.532V8.11ZM22.532 4.688H23.532V3.688H22.532V4.688ZM5.016 4.688V3.688H4.016V4.688H5.016ZM5.016 11.532H4.016V12.5286L5.01264 12.532L5.016 11.532ZM22.3 11.59L22.2966 12.59H22.3V11.59ZM1.826 33.166L2.82594 33.1774L2.82594 33.1766L1.826 33.166ZM2 21.798V20.798H1.11722L1.00772 21.674L2 21.798ZM5.016 21.798H6.016V20.798H5.016V21.798ZM5.016 45.752H4.016V46.752H5.016V45.752ZM22.532 45.752V46.752H23.532V45.752H22.532ZM22.532 14.78H23.532V13.7987L22.5509 13.7802L22.532 14.78ZM14.412 14.664L14.4235 13.664H14.412V14.664ZM1.942 4.63H2.942C2.942 3.71173 3.16371 3.20833 3.43058 2.93139C3.6908 2.66135 4.15509 2.44 5.016 2.44V1.44V0.439997C3.82757 0.439997 2.75487 0.75031 1.99042 1.5436C1.23262 2.33 0.942 3.4216 0.942 4.63H1.942ZM5.016 1.44L5.01268 2.43999L22.4707 2.49799L22.474 1.498L22.4773 0.498002L5.01932 0.440002L5.016 1.44ZM22.474 1.498V2.498C23.304 2.498 23.7597 2.71787 24.0242 2.99738C24.3013 3.29014 24.5313 3.81913 24.5482 4.76385L25.548 4.746L26.5478 4.72815C26.526 3.50753 26.2244 2.41253 25.4768 1.62261C24.7167 0.819451 23.6546 0.497996 22.474 0.497996V1.498ZM25.548 4.746L24.5481 4.76324L24.6061 8.12724L25.606 8.11L26.6059 8.09276L26.5479 4.72876L25.548 4.746ZM25.606 8.11V7.11H22.532V8.11V9.11H25.606V8.11ZM22.532 8.11H23.532V4.688H22.532H21.532V8.11H22.532ZM22.532 4.688V3.688H5.016V4.688V5.688H22.532V4.688ZM5.016 4.688H4.016V11.532H5.016H6.016V4.688H5.016ZM5.016 11.532L5.01264 12.532L22.2966 12.59L22.3 11.59L22.3034 10.59L5.01936 10.532L5.016 11.532ZM22.3 11.59V12.59C23.2285 12.59 23.7412 12.8215 24.0289 13.1091C24.3165 13.3968 24.548 13.9095 24.548 14.838H25.548H26.548C26.548 13.6012 26.2381 12.4899 25.4431 11.6949C24.6481 10.8999 23.5368 10.59 22.3 10.59V11.59ZM25.548 14.838H24.548V45.81H25.548H26.548V14.838H25.548ZM25.548 45.81H24.548C24.548 46.6991 24.3409 47.1796 24.1032 47.4366C23.8793 47.6789 23.4782 47.884 22.706 47.884V48.884V49.884C23.8285 49.884 24.8484 49.5768 25.5718 48.7944C26.2815 48.0267 26.548 46.9702 26.548 45.81H25.548ZM22.706 48.884V47.884H5.016V48.884V49.884H22.706V48.884ZM5.016 48.884V47.884C4.07417 47.884 3.55366 47.6601 3.26738 47.3892C2.99143 47.128 2.768 46.666 2.768 45.81H1.768H0.768C0.768 47.0033 1.0859 48.0783 1.89262 48.8418C2.689 49.5955 3.7925 49.884 5.016 49.884V48.884ZM1.768 45.81H2.768C2.768 40.7855 2.78733 36.5749 2.82594 33.1774L1.826 33.166L0.826065 33.1546C0.78734 36.5624 0.768 40.7811 0.768 45.81H1.768ZM1.826 33.166L2.82594 33.1766C2.86461 29.5424 2.89842 26.7796 2.92738 24.8873C2.94187 23.9408 2.95511 23.2143 2.9671 22.7061C2.9731 22.4516 2.97872 22.2549 2.98391 22.114C2.98989 21.9519 2.99405 21.9078 2.99228 21.922L2 21.798L1.00772 21.674C0.990006 21.8157 0.978932 22.1807 0.967653 22.6589C0.955472 23.1754 0.94213 23.9085 0.927617 24.8567C0.898581 26.7537 0.864728 29.5203 0.826057 33.1554L1.826 33.166ZM2 21.798V22.798H5.016V21.798V20.798H2V21.798ZM5.016 21.798H4.016V45.752H5.016H6.016V21.798H5.016ZM5.016 45.752V46.752H22.532V45.752V44.752H5.016V45.752ZM22.532 45.752H23.532V14.78H22.532H21.532V45.752H22.532ZM22.532 14.78L22.5509 13.7802C20.498 13.7414 17.7886 13.7027 14.4235 13.6641L14.412 14.664L14.4005 15.6639C17.7634 15.7026 20.4673 15.7412 22.5131 15.7798L22.532 14.78ZM14.412 14.664V13.664H5.016V14.664V15.664H14.412V14.664ZM5.016 14.664V13.664C4.14548 13.664 3.67626 13.447 3.41761 13.1884C3.15895 12.9297 2.942 12.4605 2.942 11.59H1.942H0.942C0.942 12.7688 1.23738 13.8366 2.00339 14.6026C2.76941 15.3686 3.83719 15.664 5.016 15.664V14.664ZM1.942 11.59H2.942V4.63H1.942H0.942V11.59H1.942ZM42.3535 48.826V49.826H43.3492L43.3535 48.8303L42.3535 48.826ZM39.4535 48.826H38.4535V49.826H39.4535V48.826ZM39.4535 21.624H40.4535V20.624H39.4535V21.624ZM32.2035 21.624V20.624H31.2035V21.624H32.2035ZM32.2035 48.826V49.826H33.2035V48.826H32.2035ZM29.1875 48.826L28.1875 48.8317L28.1932 49.826H29.1875V48.826ZM29.0135 18.376L29.0191 17.376L28.0077 17.3704L28.0135 18.3817L29.0135 18.376ZM39.3955 18.434L39.3899 19.434H39.3955V18.434ZM42.4695 21.682L43.4695 21.6863V21.682H42.4695ZM42.3535 48.826V47.826H39.4535V48.826V49.826H42.3535V48.826ZM39.4535 48.826H40.4535V21.624H39.4535H38.4535V48.826H39.4535ZM39.4535 21.624V20.624H32.2035V21.624V22.624H39.4535V21.624ZM32.2035 21.624H31.2035V48.826H32.2035H33.2035V21.624H32.2035ZM32.2035 48.826V47.826H29.1875V48.826V49.826H32.2035V48.826ZM29.1875 48.826L30.1875 48.8203L30.0135 18.3703L29.0135 18.376L28.0135 18.3817L28.1875 48.8317L29.1875 48.826ZM29.0135 18.376L29.0079 19.376L39.3899 19.434L39.3955 18.434L39.4011 17.434L29.0191 17.376L29.0135 18.376ZM39.3955 18.434V19.434C40.2515 19.434 40.7135 19.6574 40.9747 19.9334C41.2456 20.2197 41.4695 20.7402 41.4695 21.682H42.4695H43.4695C43.4695 20.4585 43.181 19.355 42.4273 18.5586C41.6638 17.7519 40.5888 17.434 39.3955 17.434V18.434ZM42.4695 21.682L41.4695 21.6777L41.3535 48.8217L42.3535 48.826L43.3535 48.8303L43.4695 21.6863L42.4695 21.682ZM49.3846 3.528V2.528H48.481L48.3897 3.42707L49.3846 3.528ZM52.4006 3.528L53.3962 3.62179L53.4993 2.528H52.4006V3.528ZM51.6466 11.532V12.532H52.5569L52.6422 11.6258L51.6466 11.532ZM48.5726 11.532L47.5777 11.4311L47.4661 12.532H48.5726V11.532ZM49.3846 3.528V4.528H52.4006V3.528V2.528H49.3846V3.528ZM52.4006 3.528L51.405 3.43421L50.651 11.4382L51.6466 11.532L52.6422 11.6258L53.3962 3.62179L52.4006 3.528ZM51.6466 11.532V10.532H48.5726V11.532V12.532H51.6466V11.532ZM48.5726 11.532L49.5675 11.6329L50.3795 3.62893L49.3846 3.528L48.3897 3.42707L47.5777 11.4311L48.5726 11.532ZM55.4121 1.44V0.439997H54.4121V1.44H55.4121ZM72.1741 1.44H73.1741V0.439997H72.1741V1.44ZM72.1741 4.688V5.688H73.1741V4.688H72.1741ZM65.2721 4.688V3.688H64.2721V4.688H65.2721ZM65.2721 48.826V49.826H66.2721V48.826H65.2721ZM62.2561 48.826H61.2561V49.826H62.2561V48.826ZM62.2561 4.688H63.2561V3.688H62.2561V4.688ZM55.4121 4.688H54.4121V5.688H55.4121V4.688ZM55.4121 1.44V2.44H72.1741V1.44V0.439997H55.4121V1.44ZM72.1741 1.44H71.1741V4.688H72.1741H73.1741V1.44H72.1741ZM72.1741 4.688V3.688H65.2721V4.688V5.688H72.1741V4.688ZM65.2721 4.688H64.2721V48.826H65.2721H66.2721V4.688H65.2721ZM65.2721 48.826V47.826H62.2561V48.826V49.826H65.2721V48.826ZM62.2561 48.826H63.2561V4.688H62.2561H61.2561V48.826H62.2561ZM62.2561 4.688V3.688H55.4121V4.688V5.688H62.2561V4.688ZM55.4121 4.688H56.4121V1.44H55.4121H54.4121V4.688H55.4121Z" fill="#4D4D4D" mask="url(#path-1-outside-1_2004_87)"/>
</svg>
